<?xml version="1.0" encoding="UTF-8" standalone="no"?>
<svg
   xmlns:dc="http://purl.org/dc/elements/1.1/"
   xmlns:cc="http://creativecommons.org/ns#"
   xmlns:rdf="http://www.w3.org/1999/02/22-rdf-syntax-ns#"
   xmlns:svg="http://www.w3.org/2000/svg"
   xmlns="http://www.w3.org/2000/svg"
   xmlns:sodipodi="http://sodipodi.sourceforge.net/DTD/sodipodi-0.dtd"
   xmlns:inkscape="http://www.inkscape.org/namespaces/inkscape"
   inkscape:export-ydpi="119.97844"
   inkscape:export-xdpi="119.97844"
   inkscape:export-filename="/home/elias/development/website/assets/images/ultrasonic/envelope_ideal.png"
   sodipodi:docname="envelope_ideal.svg"
   inkscape:version="1.0 (4035a4fb49, 2020-05-01)"
   width="210mm"
   height="297mm"
   viewBox="0 0 210 297"
   version="1.1"
   id="svg8">
  <defs
     id="defs2">
    <marker
       inkscape:isstock="true"
       style="overflow:visible"
       id="TriangleOutM"
       refX="0.0"
       refY="0.0"
       orient="auto"
       inkscape:stockid="TriangleOutM">
      <path
         transform="scale(0.4)"
         style="fill-rule:evenodd;stroke:#23373b;stroke-width:1pt;stroke-opacity:1;fill:#23373b;fill-opacity:1"
         d="M 5.77,0.0 L -2.88,5.0 L -2.88,-5.0 L 5.77,0.0 z "
         id="path1543" />
    </marker>
    <marker
       inkscape:isstock="true"
       style="overflow:visible"
       id="TriangleInM"
       refX="0.0"
       refY="0.0"
       orient="auto"
       inkscape:stockid="TriangleInM">
      <path
         transform="scale(-0.4)"
         style="fill-rule:evenodd;stroke:#23373b;stroke-width:1pt;stroke-opacity:1;fill:#23373b;fill-opacity:1"
         d="M 5.77,0.0 L -2.88,5.0 L -2.88,-5.0 L 5.77,0.0 z "
         id="path1534" />
    </marker>
    <clipPath
       id="clipPath8403">
      <rect
         y="63.5"
         x="21.166666"
         height="95.25"
         width="169.33333"
         style="fill:#b33f62;stroke:#0b1112;stroke-width:1.2;stroke-linecap:round;stroke-linejoin:round"
         id="rect1364" />
    </clipPath>
  </defs>
  <sodipodi:namedview
     inkscape:window-maximized="1"
     inkscape:window-y="607"
     inkscape:window-x="1080"
     inkscape:window-height="1015"
     inkscape:window-width="1920"
     showgrid="true"
     inkscape:document-rotation="0"
     inkscape:current-layer="layer1"
     inkscape:document-units="mm"
     inkscape:cy="531.19633"
     inkscape:cx="384.99718"
     inkscape:zoom="1.979899"
     inkscape:pageshadow="2"
     inkscape:pageopacity="0.0"
     borderopacity="1.0"
     bordercolor="#666666"
     pagecolor="#ffffff"
     id="base">
    <inkscape:grid
       id="grid833"
       type="xygrid" />
  </sodipodi:namedview>
  <metadata
     id="metadata5">
    <rdf:RDF>
      <cc:Work
         rdf:about="">
        <dc:format>image/svg+xml</dc:format>
        <dc:type
           rdf:resource="http://purl.org/dc/dcmitype/StillImage" />
        <dc:title></dc:title>
      </cc:Work>
    </rdf:RDF>
  </metadata>
  <g
     id="layer1"
     inkscape:groupmode="layer"
     inkscape:label="Layer 1">
    <path
       transform="translate(0,42.65621)"
       style="fill:none;stroke:#c0c0c0;stroke-width:0.75;stroke-linecap:round;stroke-linejoin:round;stroke-miterlimit:4;stroke-dasharray:none"
       d="m 21.1667,108.521 c 2.9707,4.502 5.9415,11.875 8.9122,9.189 2.9708,-2.687 5.9416,-14.461 8.9123,-15.893 2.9708,-1.432 5.9415,11.059 8.9123,18.039 2.9708,6.98 5.9415,-0.262 8.9123,-12.152 2.9707,-11.8889 5.9415,-16.3195 8.9123,-2.986 2.9707,13.334 5.9415,33.3 8.9122,24.534 2.9708,-8.766 5.9416,-42.2656 8.9123,-44.9087 2.9708,-2.6432 5.9416,34.4707 8.9123,53.1547 2.9708,18.684 5.9415,-5.096 8.9121,-38.7353 2.971,-33.6389 5.942,-33.6265 8.912,0 2.971,33.6263 5.942,57.3703 8.913,38.7353 2.971,-18.636 5.941,-55.7416 8.912,-53.1547 2.971,2.5868 5.942,36.0997 8.912,44.9087 2.971,8.808 5.942,-11.18 8.913,-24.534 2.97,-13.3528 5.941,-8.9006 8.912,2.986 2.971,11.887 5.941,19.116 8.912,12.152 2.971,-6.964 5.942,-19.451 8.912,-18.039 2.971,1.413 5.942,13.191 8.913,15.893 2.97,2.702 5.941,-4.687 8.912,-9.189"
       title="2*cos(12*x)/exp(fabs(x))"
       clip-path="url(#clipPath8403)"
       id="path1371" />
    <path
       sodipodi:nodetypes="csc"
       id="path1379"
       d="m 105.83333,116.41667 c -11.906244,0 -24.106432,13.79043 -39.540759,20.87274 -17.91282,8.21962 -45.125904,8.23142 -45.125904,8.23142"
       style="fill:none;stroke:#b33f62;stroke-width:1.5;stroke-linecap:butt;stroke-linejoin:miter;stroke-miterlimit:4;stroke-dasharray:none;stroke-opacity:1" />
    <path
       sodipodi:nodetypes="ccc"
       id="path1396"
       d="m 21.166667,111.125 -1e-6,42.33333 H 198.4375"
       style="fill:none;stroke:#23373b;stroke-width:0.75;stroke-linecap:butt;stroke-linejoin:miter;stroke-miterlimit:4;stroke-dasharray:none;stroke-opacity:1;marker-start:url(#TriangleInM);marker-end:url(#TriangleOutM)" />
    <text
       id="text1762"
       y="105.51799"
       x="17.960501"
       style="font-style:normal;font-weight:normal;font-size:6.35px;line-height:1.25;font-family:sans-serif;letter-spacing:0px;word-spacing:0px;fill:#23373b;fill-opacity:1;stroke:none;stroke-width:0.264583;"
       xml:space="preserve"><tspan
         style="font-style:normal;font-variant:normal;font-weight:bold;font-stretch:normal;font-size:6.35px;font-family:Roboto;-inkscape-font-specification:'Roboto Bold';fill:#23373b;stroke-width:0.264583;stroke:none;"
         y="105.51799"
         x="17.960501"
         id="tspan1760"
         sodipodi:role="line">v(t)</tspan></text>
    <text
       xml:space="preserve"
       style="font-style:normal;font-weight:normal;font-size:6.35px;line-height:1.25;font-family:sans-serif;letter-spacing:0px;word-spacing:0px;fill:#23373b;fill-opacity:1;stroke:none;stroke-width:0.264583;"
       x="202.05687"
       y="155.42641"
       id="text1762-6"><tspan
         sodipodi:role="line"
         id="tspan1760-7"
         x="202.05687"
         y="155.42641"
         style="font-style:normal;font-variant:normal;font-weight:bold;font-stretch:normal;font-size:6.35px;font-family:Roboto;-inkscape-font-specification:'Roboto Bold';fill:#23373b;stroke-width:0.264583;stroke:none;">t</tspan></text>
    <path
       style="fill:none;stroke:#b33f62;stroke-width:1.5;stroke-linecap:butt;stroke-linejoin:miter;stroke-miterlimit:4;stroke-dasharray:none;stroke-opacity:1"
       d="m 105.83333,116.41667 c 11.90625,0 24.10644,13.79043 39.54077,20.87274 17.91281,8.21962 45.12589,8.23142 45.12589,8.23142"
       id="path1379-3"
       sodipodi:nodetypes="csc" />
    <path
       id="path1962"
       d="m 21.166666,153.45833 v 35.71875"
       style="fill:#23373b;stroke:#23373b;stroke-width:0.75;stroke-linecap:butt;stroke-linejoin:miter;stroke-opacity:1;stroke-miterlimit:4;stroke-dasharray:none" />
  </g>
</svg>
